<mxfile host="65bd71144e">
    <diagram id="9Dw0tQ-tija3oh4309Nc" name="Page-1">
        <mxGraphModel dx="1353" dy="719" grid="0" gridSize="10" guides="1" tooltips="1" connect="1" arrows="1" fold="1" page="1" pageScale="1" pageWidth="850" pageHeight="1100" background="#FFFFFF" math="0" shadow="0">
            <root>
                <mxCell id="0"/>
                <mxCell id="1" parent="0"/>
                <mxCell id="3" value="Postgres DBMS" style="aspect=fixed;html=1;points=[];align=center;image;fontSize=12;image=img/lib/mscae/Azure_Database_for_PostgreSQL_servers.svg;" parent="1" vertex="1">
                    <mxGeometry x="60" y="201" width="38" height="50" as="geometry"/>
                </mxCell>
                <mxCell id="4" value="Redis Cache" style="aspect=fixed;html=1;points=[];align=center;image;fontSize=12;image=img/lib/mscae/Cache_Redis_Product.svg;" parent="1" vertex="1">
                    <mxGeometry x="220" y="214" width="50" height="42" as="geometry"/>
                </mxCell>
                <mxCell id="5" value="Key Vault" style="aspect=fixed;html=1;points=[];align=center;image;fontSize=12;image=img/lib/azure2/security/Key_Vaults.svg;" parent="1" vertex="1">
                    <mxGeometry x="470" y="201" width="68" height="68" as="geometry"/>
                </mxCell>
                <mxCell id="6" value="App Configuration" style="aspect=fixed;html=1;points=[];align=center;image;fontSize=12;image=img/lib/azure2/integration/App_Configuration.svg;" parent="1" vertex="1">
                    <mxGeometry x="680" y="210" width="64" height="68" as="geometry"/>
                </mxCell>
                <mxCell id="9" style="edgeStyle=none;html=1;fillColor=#6a00ff;strokeColor=#3700CC;" parent="1" source="16" target="6" edge="1">
                    <mxGeometry relative="1" as="geometry"/>
                </mxCell>
                <mxCell id="15" value="Retrieve Configuration Values" style="edgeLabel;html=1;align=center;verticalAlign=middle;resizable=0;points=[];" parent="9" vertex="1" connectable="0">
                    <mxGeometry x="0.0975" y="-4" relative="1" as="geometry">
                        <mxPoint as="offset"/>
                    </mxGeometry>
                </mxCell>
                <mxCell id="10" style="edgeStyle=none;html=1;entryX=0;entryY=0.75;entryDx=0;entryDy=0;entryPerimeter=0;fillColor=#6a00ff;strokeColor=#3700CC;" parent="1" source="16" target="5" edge="1">
                    <mxGeometry relative="1" as="geometry"/>
                </mxCell>
                <mxCell id="14" value="Retrieve Secrets" style="edgeLabel;html=1;align=center;verticalAlign=middle;resizable=0;points=[];" parent="10" vertex="1" connectable="0">
                    <mxGeometry x="0.1426" relative="1" as="geometry">
                        <mxPoint as="offset"/>
                    </mxGeometry>
                </mxCell>
                <mxCell id="11" style="edgeStyle=none;html=1;entryX=1.053;entryY=0.707;entryDx=0;entryDy=0;entryPerimeter=0;fillColor=#6a00ff;strokeColor=#3700CC;exitX=0.307;exitY=-0.013;exitDx=0;exitDy=0;exitPerimeter=0;" parent="1" source="16" target="4" edge="1">
                    <mxGeometry relative="1" as="geometry"/>
                </mxCell>
                <mxCell id="13" value="Cache Data" style="edgeLabel;html=1;align=center;verticalAlign=middle;resizable=0;points=[];" parent="11" vertex="1" connectable="0">
                    <mxGeometry x="0.0832" y="-2" relative="1" as="geometry">
                        <mxPoint as="offset"/>
                    </mxGeometry>
                </mxCell>
                <mxCell id="12" value="Persist Data" style="edgeStyle=none;html=1;fillColor=#6a00ff;strokeColor=#3700CC;exitX=0;exitY=0;exitDx=0;exitDy=0;exitPerimeter=0;" parent="1" source="16" target="3" edge="1">
                    <mxGeometry relative="1" as="geometry"/>
                </mxCell>
                <mxCell id="18" style="edgeStyle=none;html=1;" edge="1" parent="1" source="8" target="16">
                    <mxGeometry relative="1" as="geometry"/>
                </mxCell>
                <mxCell id="8" value="Container Instance" style="aspect=fixed;html=1;points=[];align=center;image;fontSize=12;image=img/lib/azure2/containers/Container_Instances.svg;" parent="1" vertex="1">
                    <mxGeometry x="375" y="656" width="64" height="69" as="geometry"/>
                </mxCell>
                <mxCell id="16" value="Managed Identity" style="sketch=0;aspect=fixed;html=1;points=[];align=center;image;fontSize=12;image=img/lib/mscae/Managed_Identities.svg;" vertex="1" parent="1">
                    <mxGeometry x="391" y="575" width="38" height="50" as="geometry"/>
                </mxCell>
                <mxCell id="21" value="&lt;font color=&quot;#000000&quot;&gt;Has Roles:&lt;br&gt;&amp;nbsp; &amp;nbsp; &amp;nbsp; &amp;nbsp; &amp;nbsp; &amp;nbsp; * App Configuration Data Reader&lt;br&gt;* Key Vault Secrets User&lt;br&gt;* ....&lt;br&gt;&lt;/font&gt;" style="text;html=1;align=center;verticalAlign=middle;resizable=0;points=[];autosize=1;strokeColor=none;fillColor=none;" vertex="1" parent="1">
                    <mxGeometry x="402" y="573" width="233" height="70" as="geometry"/>
                </mxCell>
            </root>
        </mxGraphModel>
    </diagram>
</mxfile>